<svg width="101" height="76" viewBox="0 0 101 76" fill="none" xmlns="http://www.w3.org/2000/svg">
<g opacity="0.5" clip-path="url(#clip0_860_2367)">
<path d="M88.2075 50.3469C88.2075 64.1489 77.0695 75.3379 63.3282 75.3379C49.5895 75.3379 38.4502 64.1489 38.4502 50.3469C38.4502 36.5489 49.5895 25.3591 63.3282 25.3591C77.0682 25.3571 88.2075 36.5469 88.2075 50.3469Z" fill="#D8D8DA"/>
<path d="M76.5998 65.7654H17.6452C17.1858 65.7654 16.8125 66.141 16.8125 66.6024C16.8125 67.0638 17.1872 67.4395 17.6452 67.4395H76.6018C77.0605 67.4395 77.4365 67.0631 77.4365 66.6024C77.4345 66.1404 77.0605 65.7654 76.5998 65.7654Z" fill="#545769"/>
<path d="M17.6456 46.3846H38.6462C38.8562 46.6438 39.0682 46.9009 39.2769 47.1614L39.6076 47.5659C40.2142 48.3058 40.8262 49.0558 41.4296 49.8051C43.0549 51.8248 44.9096 54.1987 46.3469 56.5156C46.4942 56.7514 46.7562 56.8913 47.0542 56.8913C47.3536 56.8913 47.6182 56.7514 47.7622 56.5156C47.9889 56.1507 48.2349 55.7717 48.4942 55.3853C50.2676 52.7402 52.4996 50.0429 54.6562 47.4406L55.5309 46.3853H76.6016C77.0602 46.3853 77.4362 46.0089 77.4362 45.5482C77.4362 45.0875 77.0596 44.7112 76.6016 44.7112H56.9029L57.1129 44.45C61.6409 38.8371 64.6536 34.1355 64.6536 29.4319C64.6536 19.7248 56.7889 11.827 47.1189 11.827C37.4556 11.827 29.5929 19.7248 29.5929 29.4319C29.5929 33.8174 32.4282 38.2404 34.8989 41.6054C35.5722 42.5228 36.3342 43.5132 37.2896 44.7112H17.6429C17.1829 44.7112 16.8096 45.0875 16.8096 45.5482C16.8102 46.0096 17.1856 46.3846 17.6456 46.3846ZM47.1202 13.5011C55.8709 13.5011 62.9856 20.6482 62.9856 29.4319C62.9856 33.6427 60.1222 38.0596 55.8162 43.3967C55.4402 43.8647 55.0182 44.379 54.4949 45.0132L53.3936 46.3471C51.3376 48.8275 49.2129 51.3935 47.4489 53.9529L47.0549 54.5235L46.6629 53.9529C44.9676 51.4833 42.9169 48.9721 40.9322 46.5453L39.6836 45.0172C38.6216 43.7054 37.3769 42.1572 36.2409 40.611C32.7969 35.9208 31.2602 32.4728 31.2602 29.4313C31.2602 20.6476 38.3749 13.5011 47.1202 13.5011Z" fill="#545769"/>
<path d="M21.4857 55.2366C21.027 55.2366 20.6523 55.6122 20.6523 56.0736C20.6523 56.5343 21.0283 56.9107 21.4857 56.9107H25.375C25.8337 56.9107 26.2083 56.5343 26.2083 56.0736C26.2083 55.6122 25.8323 55.2366 25.375 55.2366H21.4857Z" fill="#545769"/>
<path d="M29.3867 55.2366C28.928 55.2366 28.5547 55.6122 28.5547 56.0736C28.5547 56.5343 28.9294 56.9107 29.3867 56.9107H33.276C33.7374 56.9107 34.1094 56.5343 34.1094 56.0736C34.1094 55.6122 33.7347 55.2366 33.276 55.2366H29.3867Z" fill="#545769"/>
<path d="M37.207 55.2366C36.7477 55.2366 36.373 55.6122 36.373 56.0736C36.373 56.5343 36.7497 56.9107 37.207 56.9107H41.0964C41.5557 56.9107 41.9304 56.5343 41.9304 56.0736C41.9304 55.6122 41.5537 55.2366 41.0964 55.2366H37.207Z" fill="#545769"/>
<path d="M52.8874 55.2366C52.4287 55.2366 52.0527 55.6122 52.0527 56.0736C52.0527 56.5343 52.4294 56.9107 52.8874 56.9107H56.7767C57.2381 56.9107 57.6101 56.5343 57.6101 56.0736C57.6101 55.6122 57.2347 55.2366 56.7767 55.2366H52.8874Z" fill="#545769"/>
<path d="M60.79 55.2366C60.3313 55.2366 59.958 55.6122 59.958 56.0736C59.958 56.5343 60.3327 56.9107 60.79 56.9107H64.6807C65.1393 56.9107 65.514 56.5343 65.514 56.0736C65.514 55.6122 65.1393 55.2366 64.6807 55.2366H60.79Z" fill="#545769"/>
<path d="M68.6091 55.2366C68.1504 55.2366 67.7744 55.6122 67.7744 56.0736C67.7744 56.5343 68.1511 56.9107 68.6091 56.9107H72.4984C72.9571 56.9107 73.3331 56.5343 73.3331 56.0736C73.3331 55.6122 72.9564 55.2366 72.4984 55.2366H68.6091Z" fill="#545769"/>
<path d="M47.1252 38.9201C52.1806 38.9201 56.2952 34.6786 56.2952 29.4647C56.2952 24.2542 52.1806 20.0154 47.1252 20.0154C42.0679 20.0154 37.9492 24.2549 37.9492 29.4647C37.9499 34.6786 42.0659 38.9201 47.1252 38.9201ZM47.1252 21.6895C51.2639 21.6895 54.6272 25.1777 54.6272 29.464C54.6272 33.7544 51.2612 37.2446 47.1252 37.2446C42.9846 37.2446 39.6166 33.7544 39.6166 29.464C39.6172 25.1777 42.9852 21.6895 47.1252 21.6895Z" fill="#545769"/>
</g>
<defs>
<clipPath id="clip0_860_2367">
<rect width="100" height="75" fill="white" transform="translate(0.5 0.5)"/>
</clipPath>
</defs>
</svg>
