<svg width="100" height="76" viewBox="0 0 100 76" fill="none" xmlns="http://www.w3.org/2000/svg">
<g opacity="0.5" clip-path="url(#clip0_860_1884)">
<path d="M76.1978 25.6525C76.1978 39.4545 65.0598 50.6435 51.3178 50.6435C37.5798 50.6435 26.4404 39.4545 26.4404 25.6525C26.4404 11.8525 37.5798 0.66272 51.3178 0.66272C65.0591 0.661381 76.1978 11.8511 76.1978 25.6525Z" fill="#D8D8DA"/>
<path d="M62.9213 61.1971L63.0273 61.1134C64.4859 59.9623 65.4193 58.3759 65.7266 56.5237L65.7513 56.373L65.8926 56.3127C72.9899 53.306 77.5766 46.394 77.5766 38.7112C77.4699 28.2426 68.8919 19.7241 58.4566 19.7241C47.9753 19.7241 39.4473 28.2895 39.4473 38.821C39.4473 46.5507 44.0326 53.4574 51.1279 56.4185L51.2686 56.4788L51.2979 56.6295C51.6213 58.4723 52.5806 60.1036 53.9973 61.2192L54.1006 61.3029V74.5351C54.1006 75.0293 54.4099 75.338 54.8999 75.338H62.1213C62.6119 75.338 62.9193 75.0306 62.9193 74.5351L62.9213 61.1971ZM41.0493 38.7112C41.0493 29.1272 48.8579 21.3313 58.4539 21.3313C68.0546 21.3313 75.8613 29.1761 75.8613 38.8197C75.8613 48.4029 68.0526 56.1962 58.4539 56.1962C48.8579 56.1982 41.0493 48.3534 41.0493 38.7112ZM61.2133 73.6243H55.6999V62.1005L56.0866 62.2665C56.7313 62.5424 57.5039 62.677 58.4566 62.677C59.2759 62.677 60.0946 62.4701 60.8593 62.2491L61.2146 62.1514L61.2133 73.6243ZM61.6406 60.1478C60.7379 60.7706 59.6573 61.096 58.4973 61.096C57.3426 61.096 56.2333 60.7719 55.2893 60.1585C54.3506 59.5304 53.6293 58.6531 53.1386 57.5496L52.9026 57.0172L53.4639 57.1692C55.0719 57.6018 56.6719 57.8087 58.3506 57.8087C60.0866 57.8087 61.7733 57.5877 63.2306 57.1706L63.6759 57.044L63.5766 57.502C63.3153 58.6806 62.3799 59.592 61.6406 60.1478Z" fill="#545769"/>
<path d="M58.4587 24.812C50.83 24.812 44.624 31.0477 44.624 38.7111C44.624 46.4354 50.832 52.7187 58.4587 52.7187C66.09 52.7187 72.296 46.483 72.296 38.8209C72.2954 31.0953 66.088 24.812 58.4587 24.812ZM58.4587 51.1116C51.7127 51.1116 46.2234 45.5991 46.2234 38.8209C46.2234 32.0415 51.712 26.529 58.4587 26.529C65.206 26.529 70.6954 32.0421 70.6954 38.8209C70.6954 45.5991 65.206 51.1116 58.4587 51.1116Z" fill="#545769"/>
<path d="M61.1524 33.3628H55.979C55.4884 33.3628 55.1797 33.6708 55.1797 34.165V45.3126C55.1797 45.8081 55.4884 46.1161 55.979 46.1161C56.4724 46.1161 56.7797 45.8081 56.7797 45.3126V40.382H61.1524C63.0184 40.382 64.5377 38.8056 64.5377 36.8717C64.5377 34.9378 63.0177 33.3628 61.1524 33.3628ZM61.1524 38.7742H56.7797V35.0771H61.1524C62.1617 35.0771 63.0457 35.9664 63.0457 36.9802C62.9197 37.8815 62.1797 38.7742 61.1524 38.7742Z" fill="#545769"/>
</g>
<defs>
<clipPath id="clip0_860_1884">
<rect width="100" height="75" fill="white" transform="translate(0 0.5)"/>
</clipPath>
</defs>
</svg>
