<svg width="45" height="60" viewBox="0 0 45 60" fill="none" xmlns="http://www.w3.org/2000/svg">
<path d="M26.0082 18.9193H18.7136C14.6912 18.9193 11.4204 22.1698 11.4204 26.1618V33.3987H18.7136C22.7347 33.3987 26.0082 30.1509 26.0082 26.1618V18.9193Z" fill="#E9E9E9"/>
<path d="M44.9986 0H22.5C10.0945 0 0 10.0216 0 22.3409V59.598C0 59.8456 0.0768443 59.9513 0.298994 60C3.10032 59.6801 5.25056 57.3434 5.31064 54.5462V52.5405H5.31902L5.32461 44.6832H22.5014C34.9069 44.6832 45 34.6603 45 22.3423L44.9986 0ZM39.6754 22.3409C39.6754 31.7449 31.97 39.3936 22.5 39.3936H5.32461V22.3409C5.32461 12.9369 13.03 5.28827 22.5014 5.28827H39.6768L39.6754 22.3409Z" fill="#E9E9E9"/>
</svg>
