<svg width="220" height="32" viewBox="0 0 220 32" fill="none" xmlns="http://www.w3.org/2000/svg">
<g clip-path="url(#clip0_312_4858)">
<path d="M37.2149 2.10999H42.6749C45.8069 2.10999 47.9189 2.24799 49.0099 2.52099C50.5759 2.90599 51.8549 3.69799 52.8489 4.89599C53.8439 6.09599 54.3389 7.60199 54.3389 9.41599C54.3389 11.242 53.8549 12.748 52.8869 13.937C51.9189 15.124 50.5809 15.92 48.8789 16.331C47.6369 16.63 45.3149 16.778 41.9099 16.778H39.9529V29.524H37.2139L37.2149 2.10999ZM39.9549 4.79499V14.092L44.5959 14.152C46.4709 14.152 47.8449 13.98 48.7139 13.637C49.5839 13.297 50.2669 12.744 50.7649 11.984C51.2619 11.222 51.5099 10.372 51.5099 9.42399C51.5099 8.50799 51.2619 7.66799 50.7649 6.90499C50.2659 6.14199 49.6129 5.59999 48.7989 5.27799C47.9839 4.95699 46.6519 4.79499 44.7999 4.79499H39.9549Z" fill="#545769"/>
<path d="M59.3789 2.11001H62.1199V18.66C62.1199 20.623 62.1569 21.847 62.2319 22.33C62.3689 23.412 62.6849 24.316 63.1829 25.043C63.6789 25.769 64.4429 26.377 65.4729 26.867C66.5069 27.359 67.5429 27.605 68.5869 27.605C69.4919 27.605 70.3629 27.412 71.1939 27.025C72.0269 26.64 72.7229 26.107 73.2819 25.423C73.8419 24.74 74.2519 23.915 74.5109 22.944C74.6989 22.25 74.7919 20.819 74.7919 18.659V2.10901H77.5309V18.659C77.5309 21.106 77.2919 23.086 76.8129 24.594C76.3329 26.104 75.3769 27.418 73.9419 28.534C72.5079 29.653 70.7719 30.211 68.7339 30.211C66.5239 30.211 64.6269 29.686 63.0509 28.631C61.4719 27.573 60.4149 26.176 59.8809 24.436C59.5459 23.37 59.3779 21.442 59.3779 18.661L59.3789 2.11001Z" fill="#545769"/>
<path d="M84.8076 2.10999H90.2666C93.3116 2.10999 95.3726 2.23499 96.4546 2.48499C98.0816 2.85799 99.4056 3.65699 100.424 4.88099C101.444 6.10899 101.951 7.61499 101.951 9.40599C101.951 10.9 101.601 12.213 100.898 13.344C100.197 14.476 99.1946 15.33 97.8896 15.91C96.5846 16.488 94.7846 16.783 92.4836 16.795L102.343 29.524H98.9536L89.0946 16.795H87.5446V29.524H84.8066L84.8076 2.10999ZM87.5456 4.79499V14.114L92.2666 14.151C94.0966 14.151 95.4486 13.975 96.3286 13.629C97.2036 13.282 97.8896 12.727 98.3816 11.963C98.8716 11.196 99.1196 10.344 99.1196 9.39899C99.1196 8.48099 98.8696 7.64599 98.3696 6.89399C97.8716 6.14199 97.2196 5.60499 96.4106 5.28099C95.6016 4.95999 94.2586 4.79799 92.3796 4.79799H87.5456V4.79499Z" fill="#545769"/>
<path d="M139.109 29.523L143.033 2.10999H143.477L154.621 24.603L165.66 2.10999H166.098L170.041 29.523H167.355L164.646 9.91999L154.955 29.524H154.254L144.449 9.77099L141.752 29.524L139.109 29.523Z" fill="#545769"/>
<path d="M175.791 2.10999H191.5V4.79499H178.529V13.385H191.387V16.07H178.529V26.84H191.387V29.525H175.79V2.10999H175.791Z" fill="#545769"/>
<path d="M196.908 29.523V2.10999H202.593C206.695 2.10999 209.668 2.43899 211.519 3.09799C214.179 4.03099 216.257 5.64399 217.754 7.94299C219.252 10.242 220 12.982 220 16.162C220 18.906 219.406 21.324 218.222 23.412C217.034 25.498 215.493 27.037 213.599 28.033C211.703 29.027 209.047 29.523 205.634 29.523H196.908ZM199.535 26.934H202.705C206.494 26.934 209.125 26.698 210.588 26.227C212.65 25.555 214.273 24.35 215.451 22.606C216.634 20.86 217.222 18.729 217.222 16.208C217.222 13.565 216.581 11.309 215.3 9.43399C214.023 7.55899 212.239 6.27299 209.954 5.57899C208.237 5.05799 205.411 4.79699 201.472 4.79699H199.534L199.535 26.934Z" fill="#545769"/>
<path d="M120.457 1.422C124.604 1.422 128.082 2.808 130.879 5.576C133.679 8.347 135.076 11.758 135.076 15.808C135.076 19.819 133.68 23.224 130.889 26.018C128.096 28.813 124.695 30.208 120.676 30.208C116.614 30.208 113.182 28.819 110.385 26.034C107.585 23.253 106.189 19.886 106.189 15.935C106.189 13.301 106.826 10.861 108.099 8.613C109.374 6.364 111.111 4.603 113.31 3.329C115.515 2.06 117.897 1.422 120.457 1.422ZM120.578 4.088C118.55 4.088 116.625 4.615 114.807 5.674C112.994 6.731 111.574 8.153 110.551 9.945C109.531 11.734 109.021 13.73 109.021 15.931C109.021 19.186 110.15 21.938 112.408 24.182C114.668 26.428 117.39 27.547 120.576 27.547C122.703 27.547 124.672 27.032 126.482 26C128.293 24.969 129.707 23.557 130.72 21.768C131.734 19.977 132.24 17.989 132.24 15.799C132.24 13.623 131.734 11.654 130.72 9.898C129.705 8.137 128.279 6.731 126.435 5.674C124.597 4.615 122.646 4.088 120.578 4.088Z" fill="#545769"/>
<path d="M13.6511 9.97601H9.82214C7.71114 9.97601 5.99414 11.689 5.99414 13.793V17.607H9.82214C11.9331 17.607 13.6511 15.897 13.6511 13.793V9.97601Z" fill="#00B80A"/>
<path d="M23.619 0H11.81C5.298 0 0 5.283 0 11.778V31.42C0 31.551 0.04 31.608 0.157 31.633C1.627 31.463 2.756 30.232 2.787 28.758V27.699H2.791L2.794 23.556H11.81C18.321 23.556 23.619 18.271 23.619 11.777V0ZM20.825 11.777C20.825 16.735 16.781 20.767 11.81 20.767H2.795V11.777C2.795 6.819 6.839 2.787 11.811 2.787H20.826L20.825 11.777Z" fill="#00B80A"/>
</g>
<defs>
<clipPath id="clip0_312_4858">
<rect width="220" height="31.633" fill="white"/>
</clipPath>
</defs>
</svg>
