<svg width="101" height="76" viewBox="0 0 101 76" fill="none" xmlns="http://www.w3.org/2000/svg">
<g opacity="0.5" clip-path="url(#clip0_860_2739)">
<path d="M69.482 50.3468C69.482 64.1488 58.344 75.3379 44.6013 75.3379C30.862 75.3379 19.7227 64.1488 19.7227 50.3468C19.7227 36.5481 30.862 25.3584 44.6013 25.3584C58.3427 25.3571 69.482 36.5461 69.482 50.3468Z" fill="#D8D8DA"/>
<path d="M84.3228 60.5301H79.5842L73.3195 47.9442C72.2528 45.7819 70.0982 44.4419 67.6968 44.4419H57.0622C54.8315 44.4419 52.9655 42.7625 52.7208 40.5399L51.8862 32.9884H62.9608C63.4995 32.9884 63.9348 32.5491 63.9348 32.01C63.9348 31.471 63.4995 31.033 62.9608 31.033H51.6695L51.6662 31.0082L50.6882 22.1629L51.0042 22.0913C52.6502 21.7183 54.0502 20.7239 54.9515 19.2915C55.8535 17.8591 56.1442 16.1596 55.7728 14.5076C55.1262 11.6408 52.5375 9.55957 49.6188 9.55957C49.1522 9.55957 48.6822 9.61314 48.2208 9.71694C44.8248 10.487 42.6855 13.8888 43.4528 17.3006C44.0115 19.7803 45.9802 21.6808 48.4682 22.1408L48.7322 22.1897L48.7348 22.2105L50.7855 40.7515C51.1375 43.9685 53.8328 46.396 57.0528 46.396H67.6708C69.3428 46.396 70.8388 47.3247 71.5755 48.8207L78.1115 61.9484C78.2768 62.2812 78.6088 62.4888 78.9822 62.4888H84.3235C84.8608 62.4888 85.2962 62.0515 85.2962 61.5118C85.2955 60.9721 84.8588 60.5301 84.3228 60.5301ZM45.2455 15.9152C45.2455 13.4964 47.2042 11.5283 49.6128 11.5283C52.0182 11.5283 53.9775 13.4957 53.9775 15.9152C53.9762 18.3306 52.0188 20.298 49.6128 20.302C47.2048 20.3006 45.2455 18.3326 45.2455 15.9152Z" fill="#545769"/>
<path d="M29.9482 48.0995C29.9436 56.5718 35.9902 63.6673 44.3276 64.9664C45.1969 65.101 46.0789 65.172 46.9529 65.172C55.1736 65.172 62.1876 59.2731 63.6436 51.1464H61.6709C61.0196 54.3231 59.3976 57.1577 56.9722 59.3401C54.5409 61.5305 51.5489 62.8477 48.3202 63.149C47.8522 63.1919 47.3796 63.2147 46.9162 63.2147C39.1076 63.2147 32.6762 57.3158 31.9556 49.4964C31.5909 45.5441 32.7682 41.6676 35.2682 38.5751C37.7569 35.4995 41.2776 33.5528 45.1829 33.0928L44.9689 31.1501C36.4136 32.1586 29.9589 39.441 29.9482 48.0995Z" fill="#545769"/>
</g>
<defs>
<clipPath id="clip0_860_2739">
<rect width="100" height="75" fill="white" transform="translate(0.5 0.5)"/>
</clipPath>
</defs>
</svg>
